#!OML:ASF H:\Terrain\Patient Classification 1\Takeo\Monday\TakeoMonday.ASF
:FULLY-SPECIFIED
:DEGREES
1217
root 9.10614 16.2115 -0.146796 16.2911 26.7276 -0.623118
lowerback 29.9209 4.53526 3.74203
upperback 13.1956 6.82019 -3.60754
thorax -0.44749 3.87689 -8.09617
lowerneck -8.95849 -10.6218 -7.10237
upperneck -19.3667 -12.0237 15.9139
head -2.7859 -6.15247 5.90986
rclavicle -2.8625e-014 -1.63003e-014
rhumerus 79.1959 -6.2536 -49.6139
rradius 26.4118
rwrist 3.52501
rhand -31.3404 25.9842
rfingers 7.12502
rthumb -4.61181 -3.94559
lclavicle -2.8625e-014 -1.63003e-014
lhumerus -26.3824 -9.60701 93.7248
lradius 108.06
lwrist 20.3251
lhand -29.0927 2.63091
lfingers 7.12502
lthumb -2.44128 32.5967
rfemur -38.7389 -37.8579 38.5535
rtibia 62.3576
rfoot -36.5472 -28.9089
rtoes -13.0948
lfemur -58.433 -11.8389 -16.2741
ltibia 55.3583
lfoot -8.49949 -9.34191
ltoes 0.228178
1218
root 9.12034 16.2225 -0.140029 16.3196 26.4898 -0.691367
lowerback 30.0102 4.49467 3.79905
upperback 13.0967 6.77228 -3.72424
thorax -0.583345 3.85041 -8.26498
lowerneck -8.74464 -10.4885 -7.13791
upperneck -19.2347 -11.8731 15.8371
head -2.79945 -6.0779 5.9048
rclavicle -7.39479e-014 1.08139e-013
rhumerus 78.5782 -5.72505 -50.1267
rradius 27.2419
rwrist 3.51418
rhand -31.3615 26.3233
rfingers 7.12502
rthumb -4.63217 -3.60606
lclavicle -7.39479e-014 1.08139e-013
lhumerus -26.6569 -9.52687 93.5995
lradius 108.039
lwrist 20.3971
lhand -28.7747 2.57574
lfingers 7.12502
lthumb -2.13415 32.5448
rfemur -38.5114 -37.56 38.4609
rtibia 62.0592
rfoot -36.2189 -29.2374
rtoes -12.2715
lfemur -58.4079 -11.8618 -16.1629
ltibia 55.2812
lfoot -8.58071 -9.15826
ltoes -0.920503
1219
root 9.13542 16.227 -0.136168 16.5962 26.3231 -0.485728
lowerback 29.8075 4.47027 3.56452
upperback 13.1076 6.67718 -3.72912
thorax -0.527734 3.79329 -8.08858
lowerneck -8.88717 -10.3721 -7.10993
upperneck -19.0191 -11.7807 15.3567
head -2.76662 -6.00454 5.74321
rclavicle 7.15625e-014 -2.98177e-014
rhumerus 78.1697 -5.33491 -50.0574
rradius 28.1271
rwrist 2.97845
rhand -31.0516 26.6718
rfingers 7.12502
rthumb -4.33299 -3.26391
lclavicle 7.15625e-014 -2.98177e-014
lhumerus -26.8481 -9.43871 93.7256
lradius 108.082
lwrist 20.5357
lhand -28.532 2.50141
lfingers 7.12502
lthumb -1.8997 32.4727
rfemur -38.5272 -37.3851 38.2476
rtibia 61.8051
rfoot -35.9331 -29.2549
rtoes -11.9003
lfemur -58.5367 -11.9956 -16.3034
ltibia 55.2234
lfoot -8.49923 -8.90479
ltoes -0.10203
1220
root 9.15005 16.2269 -0.136166 16.7063 26.2374 -0.598243
lowerback 29.5363 4.40254 3.585
upperback 13.196 6.59968 -3.63738
thorax -0.32993 3.76045 -7.94078
lowerneck -9.29038 -10.3308 -7.17329
upperneck -18.7545 -11.7574 15.0249
head -2.65262 -5.95668 5.62143
rclavicle -4.37326e-014 4.25399e-014
rhumerus 77.77 -5.11693 -49.0182
rradius 29.1402
rwrist 1.76536
rhand -31.0855 26.6825
rfingers 7.12502
rthumb -4.36572 -3.2525
lclavicle -4.37326e-014 4.25399e-014
lhumerus -26.8057 -9.33833 93.8495
lradius 108.027
lwrist 20.473
lhand -28.208 2.51274
lfingers 7.12502
lthumb -1.58679 32.4866
rfemur -38.5161 -37.2635 38.3717
rtibia 61.5785
rfoot -36.1088 -28.8744
rtoes -10.6726
lfemur -58.6994 -12.0504 -16.1611
ltibia 55.1908
lfoot -8.45157 -8.68671
ltoes 0.144204
1221
root 9.16377 16.2412 -0.13637 16.5477 26.1089 -0.996609
lowerback 29.6021 4.33672 4.02571
upperback 13.1283 6.62288 -3.63877
thorax -0.375222 3.78707 -8.21163
lowerneck -9.28915 -10.3574 -7.1311
upperneck -18.6627 -11.8233 14.8753
head -2.63442 -5.98607 5.5625
rclavicle 5.24792e-014 -8.90555e-014
rhumerus 76.8569 -4.86538 -48.5797
rradius 30.2405
rwrist 1.13931
rhand -31.4076 26.5102
rfingers 7.12502
rthumb -4.67673 -3.41816
lclavicle 5.24792e-014 -8.90555e-014
lhumerus -26.9357 -9.48195 93.7317
lradius 107.911
lwrist 20.3825
lhand -28.2673 2.38162
lfingers 7.12502
lthumb -1.64412 32.355
rfemur -38.3411 -37.1288 38.6494
rtibia 61.3677
rfoot -35.9952 -28.7619
rtoes -10.4522
lfemur -58.6624 -12.0036 -15.7938
ltibia 55.1504
lfoot -8.62375 -8.38131
ltoes -1.77481
1222
root 9.18265 16.2656 -0.127697 16.4741 25.7221 -0.958327
lowerback 29.6921 4.40337 3.88657
upperback 13.1295 6.66512 -3.6898
thorax -0.416779 3.80081 -8.21038
lowerneck -9.26707 -10.3758 -7.1029
upperneck -18.7367 -11.872 14.6531
head -2.67651 -6.00568 5.49429
rclavicle -1.35174e-014 7.95139e-015
rhumerus 75.9346 -4.44897 -48.6468
rradius 31.5084
rwrist 0.796819
rhand -31.7104 26.6054
rfingers 7.12502
rthumb -4.96908 -3.3163
lclavicle -1.35174e-014 7.95139e-015
lhumerus -26.8526 -9.63916 93.621
lradius 107.671
lwrist 20.5864
lhand -28.0518 2.21653
lfingers 7.12502
lthumb -1.43592 32.1914
rfemur -38.0411 -37.0436 38.322
rtibia 61.1892
rfoot -35.7399 -28.7703
rtoes -11.2612
lfemur -58.326 -11.9481 -15.9082
ltibia 55.0574
lfoot -8.78422 -7.97788
ltoes -2.21775
1223
root 9.20705 16.2796 -0.122389 16.5298 25.2772 -0.781399
lowerback 29.5159 4.44835 3.38592
upperback 13.2775 6.59452 -3.65479
thorax -0.250466 3.74954 -7.83737
lowerneck -9.6441 -10.2772 -7.40642
upperneck -18.6786 -11.6905 14.7217
head -2.59454 -5.88297 5.54922
rclavicle 1.22451e-013 -9.30312e-014
rhumerus 75.5078 -3.88362 -48.3602
rradius 32.8113
rwrist 0.19014
rhand -31.7665 26.908
rfingers 7.12502
rthumb -5.02327 -3.01248
lclavicle 1.22451e-013 -9.30312e-014
lhumerus -26.4696 -9.56103 93.5616
lradius 107.407
lwrist 20.7658
lhand -27.7258 1.89658
lfingers 7.12502
lthumb -1.12109 31.8734
rfemur -37.8603 -36.9575 37.8993
rtibia 61.018
rfoot -35.8476 -28.5514
rtoes -11.2906
lfemur -58.0599 -11.8758 -16.1702
ltibia 54.9236
lfoot -8.77095 -7.66895
ltoes -1.26902
1224
root 9.22573 16.286 -0.129641 16.6499 24.9041 -0.762455
lowerback 29.496 4.38365 3.2431
upperback 13.1632 6.46223 -3.76976
thorax -0.395908 3.66946 -7.85684
lowerneck -9.91197 -10.055 -7.33253
upperneck -18.3733 -11.3961 14.7054
head -2.49748 -5.72498 5.52084
rclavicle 7.55382e-014 2.0276e-014
rhumerus 74.9544 -3.2587 -48.5401
rradius 33.8546
rwrist -0.0456675
rhand -31.6141 27.9547
rfingers 7.12502
rthumb -4.87612 -1.96922
lclavicle 7.55382e-014 2.0276e-014
lhumerus -26.6364 -9.51403 93.2548
lradius 107.547
lwrist 20.7311
lhand -27.5434 1.71979
lfingers 7.12502
lthumb -0.944905 31.6974
rfemur -37.9042 -36.7729 37.825
rtibia 60.8258
rfoot -35.4026 -28.9221
rtoes -12.6333
lfemur -58.0543 -11.7621 -16.2311
ltibia 54.7981
lfoot -8.73097 -7.43679
ltoes -0.822517
1225
root 9.24035 16.2881 -0.135706 16.6739 24.5173 -0.691459
lowerback 29.5568 4.3951 3.08136
upperback 12.9946 6.41969 -3.85827
thorax -0.631276 3.62681 -7.8714
lowerneck -9.65008 -9.84745 -6.78285
upperneck -18.3595 -11.2238 14.1362
head -2.63129 -5.66208 5.28593
rclavicle -6.52014e-014 4.17448e-014
rhumerus 74.0462 -2.67529 -48.5531
rradius 34.9719
rwrist -0.651421
rhand -31.9891 28.894
rfingers 7.12502
rthumb -5.23821 -1.02125
lclavicle -6.52014e-014 4.17448e-014
lhumerus -26.9964 -9.58802 93.1098
lradius 107.808
lwrist 20.8374
lhand -27.8202 2.35449
lfingers 7.12502
lthumb -1.21227 32.3308
rfemur -37.7787 -36.6639 37.6397
rtibia 60.6023
rfoot -34.5498 -29.5756
rtoes -14.4471
lfemur -57.8802 -11.5633 -16.428
ltibia 54.6843
lfoot -8.88433 -7.2323
ltoes -2.61614
1226
root 9.2603 16.2867 -0.139326 16.5543 24.1749 -0.706913
lowerback 29.5181 4.40959 3.01079
upperback 13.0702 6.42148 -3.7772
thorax -0.547502 3.62447 -7.73092
lowerneck -9.64403 -9.82642 -6.73977
upperneck -18.5439 -11.216 13.8498
head -2.71491 -5.65322 5.20297
rclavicle 4.77083e-015 -2.18663e-014
rhumerus 73.2372 -2.24625 -48.1934
rradius 36.3679
rwrist -1.67637
rhand -32.9022 28.4389
rfingers 7.12502
rthumb -6.11978 -1.45274
lclavicle 4.77083e-015 -2.18663e-014
lhumerus -26.746 -9.80927 93.1637
lradius 107.626
lwrist 21.1851
lhand -28.5358 2.95586
lfingers 7.12502
lthumb -1.90335 32.9271
rfemur -37.4501 -36.6586 37.4243
rtibia 60.3254
rfoot -34.2147 -29.5805
rtoes -14.1578
lfemur -57.5794 -11.3874 -16.5958
ltibia 54.5957
lfoot -9.13735 -6.96234
ltoes -6.19478
